<mxfile host="app.diagrams.net" agent="Mozilla/5.0 (Windows NT 10.0; Win64; x64) AppleWebKit/537.36 (KHTML, like Gecko) Chrome/127.0.0.0 Safari/537.36" version="24.7.7">
  <diagram name="PÃ¡gina-1" id="zpC87OMkYuLUcrd6w3W-">
    <mxGraphModel dx="1050" dy="522" grid="1" gridSize="10" guides="1" tooltips="1" connect="1" arrows="1" fold="1" page="1" pageScale="1" pageWidth="850" pageHeight="1100" math="0" shadow="0">
      <root>
        <mxCell id="0" />
        <mxCell id="1" parent="0" />
        <mxCell id="2IFsXcio8NjmQ60CLeuO-20" style="edgeStyle=orthogonalEdgeStyle;rounded=0;orthogonalLoop=1;jettySize=auto;html=1;entryX=0.5;entryY=0;entryDx=0;entryDy=0;" edge="1" parent="1" source="2IFsXcio8NjmQ60CLeuO-1" target="2IFsXcio8NjmQ60CLeuO-10">
          <mxGeometry relative="1" as="geometry" />
        </mxCell>
        <mxCell id="2IFsXcio8NjmQ60CLeuO-1" value="Cliente" style="rounded=0;whiteSpace=wrap;html=1;" vertex="1" parent="1">
          <mxGeometry x="60" y="160" width="120" height="60" as="geometry" />
        </mxCell>
        <mxCell id="2IFsXcio8NjmQ60CLeuO-22" style="edgeStyle=orthogonalEdgeStyle;rounded=0;orthogonalLoop=1;jettySize=auto;html=1;entryX=0.5;entryY=0;entryDx=0;entryDy=0;" edge="1" parent="1" source="2IFsXcio8NjmQ60CLeuO-2" target="2IFsXcio8NjmQ60CLeuO-14">
          <mxGeometry relative="1" as="geometry" />
        </mxCell>
        <mxCell id="2IFsXcio8NjmQ60CLeuO-2" value="Producto" style="rounded=0;whiteSpace=wrap;html=1;" vertex="1" parent="1">
          <mxGeometry x="365" y="160" width="120" height="60" as="geometry" />
        </mxCell>
        <mxCell id="2IFsXcio8NjmQ60CLeuO-9" style="edgeStyle=orthogonalEdgeStyle;rounded=0;orthogonalLoop=1;jettySize=auto;html=1;entryX=1;entryY=0.5;entryDx=0;entryDy=0;" edge="1" parent="1" source="2IFsXcio8NjmQ60CLeuO-3" target="2IFsXcio8NjmQ60CLeuO-5">
          <mxGeometry relative="1" as="geometry" />
        </mxCell>
        <mxCell id="2IFsXcio8NjmQ60CLeuO-25" style="edgeStyle=orthogonalEdgeStyle;rounded=0;orthogonalLoop=1;jettySize=auto;html=1;" edge="1" parent="1" source="2IFsXcio8NjmQ60CLeuO-3" target="2IFsXcio8NjmQ60CLeuO-12">
          <mxGeometry relative="1" as="geometry" />
        </mxCell>
        <mxCell id="2IFsXcio8NjmQ60CLeuO-3" value="Proveedor" style="rounded=0;whiteSpace=wrap;html=1;" vertex="1" parent="1">
          <mxGeometry x="690" y="160" width="120" height="60" as="geometry" />
        </mxCell>
        <mxCell id="2IFsXcio8NjmQ60CLeuO-6" style="edgeStyle=orthogonalEdgeStyle;rounded=0;orthogonalLoop=1;jettySize=auto;html=1;" edge="1" parent="1" source="2IFsXcio8NjmQ60CLeuO-4" target="2IFsXcio8NjmQ60CLeuO-2">
          <mxGeometry relative="1" as="geometry" />
        </mxCell>
        <mxCell id="2IFsXcio8NjmQ60CLeuO-7" style="edgeStyle=orthogonalEdgeStyle;rounded=0;orthogonalLoop=1;jettySize=auto;html=1;" edge="1" parent="1" source="2IFsXcio8NjmQ60CLeuO-4" target="2IFsXcio8NjmQ60CLeuO-1">
          <mxGeometry relative="1" as="geometry" />
        </mxCell>
        <mxCell id="2IFsXcio8NjmQ60CLeuO-4" value="Compra" style="rhombus;whiteSpace=wrap;html=1;" vertex="1" parent="1">
          <mxGeometry x="210" y="160" width="110" height="60" as="geometry" />
        </mxCell>
        <mxCell id="2IFsXcio8NjmQ60CLeuO-5" value="Fabrica" style="rhombus;whiteSpace=wrap;html=1;" vertex="1" parent="1">
          <mxGeometry x="540" y="160" width="110" height="60" as="geometry" />
        </mxCell>
        <mxCell id="2IFsXcio8NjmQ60CLeuO-8" style="edgeStyle=orthogonalEdgeStyle;rounded=0;orthogonalLoop=1;jettySize=auto;html=1;entryX=0;entryY=0.5;entryDx=0;entryDy=0;" edge="1" parent="1" source="2IFsXcio8NjmQ60CLeuO-2" target="2IFsXcio8NjmQ60CLeuO-5">
          <mxGeometry relative="1" as="geometry">
            <mxPoint x="520" y="190" as="targetPoint" />
          </mxGeometry>
        </mxCell>
        <mxCell id="2IFsXcio8NjmQ60CLeuO-21" style="edgeStyle=orthogonalEdgeStyle;rounded=0;orthogonalLoop=1;jettySize=auto;html=1;" edge="1" parent="1" source="2IFsXcio8NjmQ60CLeuO-10" target="2IFsXcio8NjmQ60CLeuO-15">
          <mxGeometry relative="1" as="geometry" />
        </mxCell>
        <mxCell id="2IFsXcio8NjmQ60CLeuO-10" value="Nombre" style="ellipse;whiteSpace=wrap;html=1;" vertex="1" parent="1">
          <mxGeometry x="75" y="250" width="90" height="60" as="geometry" />
        </mxCell>
        <mxCell id="2IFsXcio8NjmQ60CLeuO-26" style="edgeStyle=orthogonalEdgeStyle;rounded=0;orthogonalLoop=1;jettySize=auto;html=1;" edge="1" parent="1" source="2IFsXcio8NjmQ60CLeuO-12" target="2IFsXcio8NjmQ60CLeuO-16">
          <mxGeometry relative="1" as="geometry" />
        </mxCell>
        <mxCell id="2IFsXcio8NjmQ60CLeuO-12" value="Nombre" style="ellipse;whiteSpace=wrap;html=1;" vertex="1" parent="1">
          <mxGeometry x="705" y="250" width="90" height="60" as="geometry" />
        </mxCell>
        <mxCell id="2IFsXcio8NjmQ60CLeuO-23" style="edgeStyle=orthogonalEdgeStyle;rounded=0;orthogonalLoop=1;jettySize=auto;html=1;" edge="1" parent="1" source="2IFsXcio8NjmQ60CLeuO-14" target="2IFsXcio8NjmQ60CLeuO-17">
          <mxGeometry relative="1" as="geometry" />
        </mxCell>
        <mxCell id="2IFsXcio8NjmQ60CLeuO-14" value="Factura" style="ellipse;whiteSpace=wrap;html=1;" vertex="1" parent="1">
          <mxGeometry x="380" y="250" width="90" height="60" as="geometry" />
        </mxCell>
        <mxCell id="2IFsXcio8NjmQ60CLeuO-15" value="Nit de facturacion*" style="ellipse;whiteSpace=wrap;html=1;" vertex="1" parent="1">
          <mxGeometry x="75" y="330" width="90" height="60" as="geometry" />
        </mxCell>
        <mxCell id="2IFsXcio8NjmQ60CLeuO-16" value="Licencia*" style="ellipse;whiteSpace=wrap;html=1;" vertex="1" parent="1">
          <mxGeometry x="705" y="330" width="90" height="60" as="geometry" />
        </mxCell>
        <mxCell id="2IFsXcio8NjmQ60CLeuO-24" style="edgeStyle=orthogonalEdgeStyle;rounded=0;orthogonalLoop=1;jettySize=auto;html=1;" edge="1" parent="1" source="2IFsXcio8NjmQ60CLeuO-17" target="2IFsXcio8NjmQ60CLeuO-18">
          <mxGeometry relative="1" as="geometry" />
        </mxCell>
        <mxCell id="2IFsXcio8NjmQ60CLeuO-17" value="Tipo de producto" style="ellipse;whiteSpace=wrap;html=1;" vertex="1" parent="1">
          <mxGeometry x="380" y="330" width="90" height="60" as="geometry" />
        </mxCell>
        <mxCell id="2IFsXcio8NjmQ60CLeuO-18" value="Codigo*" style="ellipse;whiteSpace=wrap;html=1;" vertex="1" parent="1">
          <mxGeometry x="380" y="410" width="90" height="60" as="geometry" />
        </mxCell>
      </root>
    </mxGraphModel>
  </diagram>
</mxfile>
